<svg width="121" height="40" viewBox="0 0 121 40" fill="none" xmlns="http://www.w3.org/2000/svg">
<path d="M7.72881 40C7.42373 40 7.11865 40 6.81356 40C6.20339 40 5.49153 39.8956 4.88136 39.7911C4.27119 39.6867 3.76271 39.4778 3.15254 39.2689C2.64407 38.9556 2.13559 38.6423 1.72881 38.2245C1.32203 37.8068 0.915255 37.2846 0.711865 36.7624C0.40678 36.2402 0.305086 35.6136 0.203391 34.9869C0.101696 34.3603 0 33.7337 0 33.0026C0 32.7937 0 32.0627 0 32.0627V7.93734C0 7.93734 0 7.20627 0 6.99739C0 6.37076 0.101696 5.63969 0.203391 5.01306C0.305086 4.38642 0.508475 3.86423 0.711865 3.2376C1.01695 2.7154 1.32203 2.19321 1.72881 1.77546C2.13559 1.3577 2.64407 0.939948 3.15254 0.73107C3.66102 0.417754 4.27119 0.313316 4.88136 0.208877C5.49153 0.104438 6.1017 0 6.81356 0H7.72881H112.271H113.186C113.797 0 114.407 0.104438 115.119 0.208877C115.729 0.313316 116.237 0.522193 116.847 0.73107C117.864 1.25326 118.78 2.19321 119.288 3.2376C119.593 3.75979 119.695 4.38642 119.797 4.90862C119.898 5.53525 120 6.26632 120 6.89295C120 7.20627 120 7.51958 120 7.8329C120 8.25065 120 8.56397 120 8.98172V30.8094C120 31.2272 120 31.5405 120 31.9582C120 32.2715 120 32.5849 120 32.8982C120 33.5248 119.898 34.1514 119.797 34.8825C119.695 35.5091 119.492 36.0313 119.288 36.658C118.983 37.1802 118.678 37.7023 118.271 38.1201C117.864 38.5379 117.356 38.9556 116.847 39.1645C116.339 39.4778 115.729 39.6867 115.119 39.6867C114.508 39.7911 113.898 39.8956 113.186 39.8956C112.881 39.8956 112.576 39.8956 112.271 39.8956H111.153L7.72881 40Z" fill="black"/>
<path d="M24.3047 20.3653C24.3047 18.5898 25.2199 16.9188 26.7453 15.9788C25.8301 14.6211 24.3047 13.7856 22.6775 13.6812C20.9487 13.4723 19.3216 14.7256 18.4063 14.7256C17.4911 14.7256 16.1691 13.6812 14.7453 13.6812C12.8131 13.7856 11.0843 14.83 10.1691 16.501C8.23686 19.9475 9.66059 25.1694 11.5928 27.9893C12.508 29.347 13.6267 30.9136 15.0504 30.9136C16.4741 30.8091 16.9826 29.9736 18.7114 29.9736C20.4403 29.9736 20.847 30.9136 22.3725 30.9136C23.8979 30.9136 24.8131 29.5559 25.7284 28.0937C26.4403 27.1538 26.9487 26.005 27.2538 24.8561C25.525 24.2295 24.3047 22.3496 24.3047 20.3653Z" fill="white"/>
<path d="M21.5587 11.9058C22.3722 10.8615 22.779 9.60819 22.6773 8.25049C21.457 8.35493 20.2366 8.98156 19.4231 10.0259C18.6095 10.9659 18.2027 12.2192 18.3044 13.5769C19.5248 13.5769 20.7451 12.9502 21.5587 11.9058Z" fill="white"/>
<path d="M42.2027 27.4669H37.423L36.3044 31.0178H34.2705L38.8468 18.0674H40.9824L45.5586 31.0178H43.5247L42.2027 27.4669ZM37.8298 25.9003H41.6942L39.8637 20.2606H39.762L37.8298 25.9003Z" fill="white"/>
<path d="M55.2202 26.3184C55.2202 29.2426 53.6948 31.1225 51.3558 31.1225C50.1355 31.227 49.0168 30.4959 48.5084 29.4515V34.1513H46.5762V21.6186H48.4067V23.1852C49.0168 22.1408 50.1355 21.5142 51.3558 21.5142C53.6948 21.4097 55.2202 23.3941 55.2202 26.3184ZM53.288 26.3184C53.288 24.4385 52.3728 23.1852 50.8474 23.1852C49.4236 23.1852 48.4067 24.4385 48.4067 26.3184C48.4067 28.1983 49.4236 29.4515 50.8474 29.4515C52.3728 29.4515 53.288 28.1983 53.288 26.3184Z" fill="white"/>
<path d="M65.3892 26.3184C65.3892 29.2426 63.8638 31.1225 61.5248 31.1225C60.3044 31.227 59.1858 30.4959 58.6773 29.4515V34.1513H56.7451V21.6186H58.5756V23.1852C59.1858 22.1408 60.3044 21.5142 61.5248 21.5142C63.8638 21.4097 65.3892 23.3941 65.3892 26.3184ZM63.457 26.3184C63.457 24.4385 62.5417 23.1852 61.0163 23.1852C59.5926 23.1852 58.5756 24.4385 58.5756 26.3184C58.5756 28.1983 59.5926 29.4515 61.0163 29.4515C62.44 29.4515 63.457 28.1983 63.457 26.3184Z" fill="white"/>
<path d="M72.1019 27.3628C72.2036 28.6161 73.4239 29.4516 75.1527 29.4516C76.7798 29.4516 77.8985 28.6161 77.8985 27.4672C77.8985 26.4229 77.1866 25.9007 75.5595 25.4829L73.9324 25.0652C71.5934 24.4385 70.5764 23.3941 70.5764 21.6187C70.5764 19.4255 72.5086 17.8589 75.1527 17.8589C77.7968 17.8589 79.6273 19.4255 79.729 21.6187H77.7968C77.6951 20.3654 76.6781 19.5299 75.1527 19.5299C73.6273 19.5299 72.6103 20.3654 72.6103 21.5142C72.6103 22.4542 73.3222 22.9764 74.9493 23.3941L76.3731 23.7075C78.9154 24.3341 80.0341 25.3785 80.0341 27.2584C80.0341 29.6605 78.1019 31.227 75.1527 31.227C72.3053 31.227 70.4747 29.7649 70.373 27.3628H72.1019Z" fill="white"/>
<path d="M83.8977 19.321V21.5143H85.6265V23.0808H83.8977V28.3028C83.8977 29.1383 84.2027 29.4516 85.0163 29.4516C85.2197 29.4516 85.4231 29.4516 85.6265 29.4516V31.0182C85.3214 31.1226 84.9146 31.1226 84.6095 31.1226C82.779 31.1226 82.0671 30.3915 82.0671 28.6161V23.1853H80.7451V21.6187H82.0671V19.4255H83.8977V19.321Z" fill="white"/>
<path d="M86.6436 26.3183C86.6436 23.3941 88.3724 21.5142 91.0164 21.5142C93.6605 21.5142 95.3893 23.3941 95.3893 26.3183C95.3893 29.3471 93.6605 31.1225 91.0164 31.1225C88.3724 31.1225 86.6436 29.2426 86.6436 26.3183ZM93.4571 26.3183C93.4571 24.2296 92.5419 23.0807 91.0164 23.0807C89.491 23.0807 88.5758 24.334 88.5758 26.3183C88.5758 28.4071 89.491 29.5559 91.0164 29.5559C92.5419 29.5559 93.4571 28.3027 93.4571 26.3183Z" fill="white"/>
<path d="M97.0166 21.5143H98.8471V23.1853C99.0505 22.1409 100.067 21.4099 101.084 21.5143C101.288 21.5143 101.491 21.5143 101.695 21.6188V23.3942C101.389 23.2898 101.084 23.2898 100.881 23.2898C99.8641 23.2898 98.9488 24.1253 98.9488 25.1697C98.9488 25.2741 98.9488 25.3785 98.9488 25.483V31.1227H97.0166V21.5143Z" fill="white"/>
<path d="M110.441 28.1984C110.135 29.8694 108.508 31.1227 106.474 31.1227C103.83 31.1227 102.102 29.2428 102.102 26.3185C102.102 23.3942 103.729 21.4099 106.373 21.4099C108.915 21.4099 110.542 23.1854 110.542 26.1096V26.7363H104.034V26.8407C103.932 28.1984 104.847 29.3472 106.169 29.5561C106.271 29.5561 106.373 29.5561 106.474 29.5561C107.39 29.6606 108.305 29.1384 108.61 28.1984H110.441ZM104.034 25.3786H108.61C108.712 24.1253 107.695 23.0809 106.474 22.9765C106.373 22.9765 106.373 22.9765 106.271 22.9765C105.051 22.9765 104.034 24.0209 104.034 25.3786Z" fill="white"/>
<path d="M37.626 8.24995C39.1514 8.14551 40.3717 9.29433 40.4734 10.7565C40.4734 10.9654 40.4734 11.0698 40.4734 11.2787C40.4734 13.263 39.4565 14.4118 37.626 14.4118H35.3887V8.14551H37.626V8.24995ZM36.4056 13.6808H37.5243C38.5412 13.7852 39.4565 12.9497 39.5582 11.8009C39.5582 11.6964 39.5582 11.4875 39.5582 11.3831C39.6599 10.3387 38.948 9.29433 37.931 9.18989C37.8294 9.18989 37.7277 9.18989 37.5243 9.18989H36.4056V13.6808Z" fill="white"/>
<path d="M41.491 12.1147C41.3893 10.8615 42.2029 9.81709 43.4232 9.71265C44.6435 9.60821 45.6605 10.4437 45.7622 11.697C45.7622 11.8014 45.7622 12.0103 45.7622 12.1147C45.8639 13.368 45.0503 14.4124 43.83 14.5168C42.6096 14.6213 41.5927 13.7858 41.491 12.5325C41.491 12.4281 41.491 12.3236 41.491 12.1147ZM44.9486 12.1147C44.9486 11.0704 44.5418 10.5482 43.7283 10.5482C42.9147 10.5482 42.5079 11.1748 42.5079 12.1147C42.5079 13.1591 42.9147 13.7858 43.7283 13.7858C44.4401 13.7858 44.9486 13.1591 44.9486 12.1147Z" fill="white"/>
<path d="M51.5592 14.5169H50.644L49.7287 11.0704H49.627L48.7118 14.5169H47.7965L46.5762 9.81714H47.4914L48.305 13.3681L49.2202 9.81714H50.1355L51.0507 13.3681H51.1524L51.966 9.81714H52.8813L51.5592 14.5169Z" fill="white"/>
<path d="M53.8984 9.8172H54.8137V10.5483H54.9154C55.1188 10.0261 55.7289 9.71276 56.2374 9.71276C57.051 9.60832 57.7628 10.235 57.8645 11.1749C57.8645 11.2793 57.8645 11.3838 57.8645 11.4882V14.5169H56.9493V11.6971C56.9493 10.966 56.6442 10.5483 55.9323 10.5483C55.3222 10.5483 54.8137 10.966 54.8137 11.5927C54.8137 11.6971 54.8137 11.6971 54.8137 11.8015V14.5169H53.8984V9.8172Z" fill="white"/>
<path d="M59.2881 7.93726H60.2033V14.5169H59.2881V7.93726Z" fill="white"/>
<path d="M61.4236 12.1147C61.3219 10.8615 62.1355 9.81709 63.3558 9.71265C64.5761 9.60821 65.5931 10.4437 65.6948 11.697C65.6948 11.8014 65.6948 12.0103 65.6948 12.1147C65.7965 13.368 64.9829 14.4124 63.7626 14.5168C62.5422 14.7257 61.5253 13.7858 61.4236 12.6369C61.4236 12.4281 61.4236 12.3236 61.4236 12.1147ZM64.7795 12.1147C64.7795 11.0704 64.3728 10.5482 63.5592 10.5482C62.7456 10.5482 62.3389 11.1748 62.3389 12.1147C62.3389 13.1591 62.7456 13.7858 63.5592 13.7858C64.3728 13.7858 64.7795 13.1591 64.7795 12.1147Z" fill="white"/>
<path d="M66.7111 13.1591C66.7111 12.3236 67.3212 11.8014 68.4399 11.8014L69.6602 11.697V11.2792C69.6602 10.757 69.3551 10.5482 68.745 10.5482C68.2365 10.5482 67.9314 10.757 67.8297 11.0703H66.9145C67.0162 10.2348 67.728 9.71265 68.745 9.71265C69.8636 9.71265 70.5755 10.3393 70.5755 11.2792V14.5168H69.6602V13.8902H69.5585C69.2534 14.4124 68.745 14.6213 68.1348 14.6213C67.4229 14.7257 66.7111 14.0991 66.6094 13.368C66.7111 13.2636 66.7111 13.2636 66.7111 13.1591ZM69.6602 12.7414V12.3236L68.5416 12.4281C67.9314 12.4281 67.6263 12.7414 67.6263 13.0547C67.6263 13.4724 68.0331 13.6813 68.4399 13.6813C69.05 13.8902 69.5585 13.4724 69.6602 12.7414C69.6602 12.8458 69.6602 12.8458 69.6602 12.7414Z" fill="white"/>
<path d="M71.6943 12.1148C71.6943 10.6527 72.4062 9.71271 73.6265 9.71271C74.2367 9.71271 74.7452 10.026 75.0503 10.5482H75.152V7.93726H76.0672V14.5169H75.152V13.7858H75.0503C74.7452 14.308 74.2367 14.6213 73.6265 14.6213C72.4062 14.6213 71.6943 13.6814 71.6943 12.1148ZM72.6096 12.1148C72.6096 13.1592 73.1181 13.6814 73.8299 13.6814C74.5418 13.6814 75.0503 13.0547 75.0503 12.1148C75.0503 11.1749 74.5418 10.5482 73.8299 10.5482C73.1181 10.5482 72.6096 11.1749 72.6096 12.1148Z" fill="white"/>
<path d="M79.7283 12.1147C79.6266 10.8615 80.4402 9.81709 81.6605 9.71265C82.8808 9.60821 83.8978 10.4437 83.9995 11.697C83.9995 11.8014 83.9995 12.0103 83.9995 12.1147C84.1012 13.368 83.2876 14.4124 82.0673 14.5168C80.8469 14.6213 79.83 13.7858 79.7283 12.5325C79.7283 12.4281 79.7283 12.3236 79.7283 12.1147ZM83.0842 12.1147C83.0842 11.0704 82.6774 10.5482 81.8639 10.5482C81.0503 10.5482 80.6435 11.1748 80.6435 12.1147C80.6435 13.1591 81.0503 13.7858 81.8639 13.7858C82.6774 13.7858 83.0842 13.1591 83.0842 12.1147Z" fill="white"/>
<path d="M85.2197 9.8172H86.135V10.5483H86.2367C86.4401 10.0261 87.0502 9.71276 87.5587 9.71276C88.3723 9.60832 89.0841 10.235 89.1858 11.1749C89.1858 11.2793 89.1858 11.3838 89.1858 11.4882V14.5169H88.2706V11.6971C88.2706 10.966 87.9655 10.5483 87.2536 10.5483C86.6435 10.5483 86.135 10.966 86.135 11.5927C86.135 11.6971 86.135 11.6971 86.135 11.8015V14.5169H85.2197V9.8172Z" fill="white"/>
<path d="M94.2708 8.66821V9.81704H95.2877V10.6525H94.2708V13.0546C94.2708 13.5768 94.4742 13.7857 94.881 13.7857C94.9827 13.7857 95.0844 13.7857 95.1861 13.7857V14.5168C94.9827 14.5168 94.881 14.5168 94.6776 14.5168C93.6606 14.5168 93.2539 14.2035 93.2539 13.2635V10.6525H92.542V9.92148H93.2539V8.77265H94.2708V8.66821Z" fill="white"/>
<path d="M96.5078 7.93726H97.4231V10.5482H97.5248C97.7282 10.026 98.3383 9.60828 98.9485 9.71271C99.7621 9.71271 100.474 10.3393 100.576 11.1749C100.576 11.2793 100.576 11.3837 100.576 11.4882V14.5169H99.6604V11.697C99.6604 10.966 99.3553 10.5482 98.6434 10.5482C98.0332 10.5482 97.5248 10.966 97.5248 11.5926C97.5248 11.697 97.5248 11.697 97.5248 11.8015V14.5169H96.6095L96.5078 7.93726Z" fill="white"/>
<path d="M105.661 13.2636C105.457 14.0991 104.542 14.7258 103.627 14.6213C102.508 14.6213 101.491 13.6814 101.491 12.5325C101.491 12.4281 101.491 12.3237 101.491 12.2192C101.288 11.0704 102.101 9.92158 103.322 9.81714C103.423 9.81714 103.525 9.81714 103.627 9.81714C104.949 9.81714 105.661 10.7571 105.661 12.2192V12.5325H102.406C102.305 13.2636 102.813 13.7858 103.525 13.8902H103.627C104.033 13.9947 104.542 13.6814 104.745 13.3681L105.661 13.2636ZM102.508 11.697H104.847C104.847 11.0704 104.44 10.5482 103.83 10.4438H103.728C103.017 10.5482 102.508 11.0704 102.508 11.697Z" fill="white"/>
</svg>
