<svg width="123" height="52" viewBox="0 0 123 52" fill="none" xmlns="http://www.w3.org/2000/svg">
<path d="M63.2422 16.5545C62.6606 17.1721 62.43 17.9935 62.43 18.7037V30.6289L50.0259 14.2654H44.7852V40.5861H50.3953L50.3219 23.6113L63.2034 40.5861H68.0381V34.3672V14.249C67.4197 14.4054 64.6932 15.0868 63.2422 16.5545ZM81.9258 36.3249C78.4176 36.3249 75.5911 34.4887 75.5911 30.1801C75.5911 27.1911 77.634 24.8176 80.4074 24.8176C82.2666 24.8176 83.6033 25.4022 85.0829 26.6929L88.2727 23.2551C86.2686 21.1986 83.9298 20.0026 80.4829 20.0026C74.4034 20.0026 70.0993 24.6611 70.0993 30.1801C70.0993 36.9239 74.7891 40.5861 80.2278 40.5861C82.7401 40.5861 85.036 40.0879 86.7155 39.1369C87.2747 38.7869 87.3421 38.2764 87.3421 37.7062V34.9807C85.5645 35.8453 83.6727 36.3249 81.9258 36.3249ZM102.448 28.7926C102.228 26.0898 100.771 24.2824 98.1849 24.2824C95.942 24.2824 94.1053 26.1268 93.889 28.7926H102.448ZM107.679 30.6906C107.679 31.1373 107.679 31.4358 107.593 32.0616H93.9931C94.5849 35.0815 97.2277 36.3722 100.171 36.3722C101.901 36.3722 103.809 35.8988 105.569 35.0404V37.6712C105.569 38.2352 105.503 38.7416 104.952 39.0875C103.297 40.0303 100.985 40.5244 98.4787 40.5244C93.1094 40.5244 88.6298 36.8498 88.5502 30.3633C88.5502 24.5067 92.1931 20.1158 98.1114 20.1158C104.548 20.1158 107.632 24.7682 107.679 30.6906ZM109.873 40.5326H114.811V13.757C114.268 13.8949 111.866 14.496 110.589 15.7888C110.077 16.3322 109.873 17.0568 109.873 17.6826V40.5326ZM117.642 40.5326H122.581V13.757C122.038 13.8949 119.636 14.496 118.358 15.7888C117.846 16.3322 117.642 17.0568 117.642 17.6826V40.5326Z" fill="#6A2C91"/>
<path d="M17.3794 51.0065V30.6041L34.7589 40.8043L17.3794 51.0065Z" fill="url(#paint0_linear)"/>
<path d="M17.3794 30.6042V10.2019L34.7589 20.402L17.3794 30.6042Z" fill="url(#paint1_linear)"/>
<path d="M0 20.4023V0L17.3795 10.2022L0 20.4023Z" fill="#E7A432"/>
<path d="M17.3795 30.6041V51.0065L0 40.8043L17.3795 30.6041Z" fill="#D94281"/>
<path d="M17.3795 10.2019V30.6042L0 20.402L17.3795 10.2019Z" fill="#E08126"/>
<path d="M34.7589 20.4023V40.8047L17.3794 30.6045L34.7589 20.4023Z" fill="url(#paint2_linear)"/>
<defs>
<linearGradient id="paint0_linear" x1="17.3793" y1="40.805" x2="34.7587" y2="40.805" gradientUnits="userSpaceOnUse">
<stop stop-color="#9A1F3B"/>
<stop offset="0.3758" stop-color="#B41F4A"/>
<stop offset="0.7429" stop-color="#C71E55"/>
<stop offset="1" stop-color="#CF1D5A"/>
</linearGradient>
<linearGradient id="paint1_linear" x1="17.3793" y1="20.4024" x2="34.7587" y2="20.4024" gradientUnits="userSpaceOnUse">
<stop stop-color="#DB5E26"/>
<stop offset="0.1" stop-color="#DB5E26"/>
<stop offset="0.6367" stop-color="#DE7626"/>
<stop offset="1" stop-color="#E08126"/>
</linearGradient>
<linearGradient id="paint2_linear" x1="17.3793" y1="30.6041" x2="34.7587" y2="30.6041" gradientUnits="userSpaceOnUse">
<stop stop-color="#2A2764"/>
<stop offset="0.1361" stop-color="#4F286D"/>
<stop offset="0.2143" stop-color="#5F2871"/>
<stop offset="0.4639" stop-color="#6F2D74"/>
<stop offset="0.9844" stop-color="#993F7E"/>
<stop offset="1" stop-color="#9B3F7F"/>
</linearGradient>
</defs>
</svg>
