<svg width="30" height="30" viewBox="0 0 30 30" fill="none" xmlns="http://www.w3.org/2000/svg">
<circle cx="15" cy="15" r="15" fill="white"/>
<circle cx="15" cy="15" r="14.5" stroke="black" stroke-opacity="0.08"/>
<path d="M8.8814 8.9383C7.82261 10.0381 8.03931 11.2063 8.03931 14.7554C8.03931 17.7027 7.52508 20.6573 10.2164 21.3529C11.0568 21.569 18.5031 21.569 19.3424 21.3518C20.4629 21.0627 21.3746 20.1538 21.4992 18.569C21.5166 18.3478 21.5166 11.167 21.4987 10.9413C21.3662 9.25324 20.327 8.28035 18.9578 8.0833C18.644 8.03782 18.5811 8.02435 16.971 8.02154C11.26 8.02435 10.0081 7.77004 8.8814 8.9383Z" fill="url(#paint0_linear)"/>
<path d="M14.7746 9.78385C12.7362 9.78385 10.8005 9.60252 10.0611 11.5C9.75575 12.2837 9.8001 13.3015 9.8001 14.7589C9.8001 16.0377 9.75912 17.2397 10.0611 18.0172C10.7988 19.9158 12.7502 19.7339 14.7735 19.7339C16.7254 19.7339 18.738 19.9372 19.4863 18.0172C19.7923 17.2257 19.7474 16.223 19.7474 14.7589C19.7474 12.8154 19.8546 11.5607 18.912 10.6186C17.9577 9.66428 16.667 9.78385 14.7723 9.78385H14.7746ZM14.3288 10.6804C18.5808 10.6737 19.122 10.201 18.8233 16.7676C18.7172 19.09 16.9488 18.8352 14.7751 18.8352C10.8117 18.8352 10.6978 18.7218 10.6978 14.7567C10.6978 10.7455 11.0121 10.6826 14.3288 10.6793V10.6804ZM17.43 11.5062C17.1004 11.5062 16.8332 11.7734 16.8332 12.103C16.8332 12.4325 17.1004 12.6997 17.43 12.6997C17.7595 12.6997 18.0267 12.4325 18.0267 12.103C18.0267 11.7734 17.7595 11.5062 17.43 11.5062ZM14.7746 12.204C13.3638 12.204 12.2203 13.3481 12.2203 14.7589C12.2203 16.1697 13.3638 17.3132 14.7746 17.3132C16.1854 17.3132 17.3283 16.1697 17.3283 14.7589C17.3283 13.3481 16.1854 12.204 14.7746 12.204ZM14.7746 13.1006C16.9668 13.1006 16.9696 16.4172 14.7746 16.4172C12.5829 16.4172 12.5795 13.1006 14.7746 13.1006Z" fill="white"/>
<defs>
<linearGradient id="paint0_linear" x1="8.90723" y1="20.6344" x2="21.4293" y2="9.79665" gradientUnits="userSpaceOnUse">
<stop stop-color="#FFDD55"/>
<stop offset="0.5" stop-color="#FF543E"/>
<stop offset="1" stop-color="#C837AB"/>
</linearGradient>
</defs>
</svg>
