<svg width="30" height="30" viewBox="0 0 30 30" fill="none" xmlns="http://www.w3.org/2000/svg">
<circle cx="15" cy="15" r="15" fill="white"/>
<circle cx="15" cy="15" r="14.5" stroke="black" stroke-opacity="0.08"/>
<path d="M23.7247 15.7977V21.9819H20.1392V16.2121C20.1392 14.7634 19.6216 13.7741 18.3234 13.7741C17.3327 13.7741 16.7442 14.4401 16.4843 15.0851C16.3899 15.3156 16.3656 15.6356 16.3656 15.9589V21.9816H12.7799C12.7799 21.9816 12.828 12.2096 12.7799 11.198H16.3658V12.7262C16.3586 12.7382 16.3485 12.75 16.342 12.7615H16.3658V12.7262C16.8423 11.993 17.6921 10.9448 19.5972 10.9448C21.9561 10.9448 23.7247 12.4861 23.7247 15.7977ZM9.02895 6C7.80243 6 7 6.80511 7 7.8629C7 8.89823 7.77917 9.7266 8.98189 9.7266H9.00515C10.2557 9.7266 11.0333 8.89823 11.0333 7.8629C11.0095 6.80511 10.2557 6 9.02895 6ZM7.21311 21.9819H10.7975V11.198H7.21311V21.9819Z" fill="#0E76A8"/>
</svg>
