<svg width="80" height="80" viewBox="0 0 80 80" fill="none" xmlns="http://www.w3.org/2000/svg">
<path d="M40 32.3828C35.8001 32.3828 32.3828 35.8001 32.3828 40C32.3828 44.1999 35.8001 47.6172 40 47.6172C44.1999 47.6172 47.6172 44.1999 47.6172 40C47.6172 35.8001 44.1999 32.3828 40 32.3828Z" fill="url(#paint0_linear)"/>
<path d="M66 44.2966V35.7035L58.9508 34.3154C58.5654 33.0345 58.0536 31.7996 57.4169 30.6244L61.3504 24.724L55.2759 18.6495L49.3755 22.583C48.2003 21.9463 46.9655 21.4345 45.6845 21.0491L44.2966 14H35.7035L34.3154 21.0492C33.0345 21.4346 31.7996 21.9464 30.6244 22.5831L24.724 18.6495L18.6495 24.724L22.583 30.6244C21.9463 31.7996 21.4345 33.0344 21.0491 34.3154L14 35.7034V44.2965L21.0492 45.6846C21.4346 46.9655 21.9464 48.2004 22.5831 49.3756L18.6495 55.276L24.724 61.3505L30.6244 57.417C31.7996 58.0537 33.0344 58.5655 34.3154 58.9509L35.7034 66H44.2965L45.6846 58.9508C46.9655 58.5654 48.2004 58.0536 49.3756 57.4169L55.276 61.3504L61.3505 55.2759L57.417 49.3755C58.0537 48.2003 58.5655 46.9655 58.9509 45.6845L66 44.2966ZM40 50.6641C34.1204 50.6641 29.3359 45.8796 29.3359 40C29.3359 34.1204 34.1204 29.3359 40 29.3359C45.8796 29.3359 50.6641 34.1204 50.6641 40C50.6641 45.8796 45.8796 50.6641 40 50.6641Z" fill="url(#paint1_linear)"/>
<defs>
<linearGradient id="paint0_linear" x1="32.3832" y1="40.0001" x2="47.6177" y2="40.0001" gradientUnits="userSpaceOnUse">
<stop stop-color="#F04E23"/>
<stop offset="0.1" stop-color="#F04E23"/>
<stop offset="0.3055" stop-color="#F26322"/>
<stop offset="0.7687" stop-color="#F6871F"/>
<stop offset="0.9995" stop-color="#F7941D"/>
<stop offset="1" stop-color="#F7941D"/>
</linearGradient>
<linearGradient id="paint1_linear" x1="14.0004" y1="40.0006" x2="65.999" y2="40.0006" gradientUnits="userSpaceOnUse">
<stop stop-color="#221E67"/>
<stop offset="0.2495" stop-color="#5E1F70"/>
<stop offset="0.484" stop-color="#7A2976"/>
<stop offset="0.8283" stop-color="#A3387D"/>
<stop offset="1" stop-color="#B63F81"/>
</linearGradient>
</defs>
</svg>
