
<svg width="85" height="36" viewBox="0 0 85 36" fill="none" xmlns="http://www.w3.org/2000/svg">
<path d="M43.4037 11.3617C43.0045 11.7855 42.8462 12.3492 42.8462 12.8366V21.0211L34.3332 9.79062H30.7363V27.8549H34.5867L34.5362 16.2048L43.3771 27.8549H46.6952V23.5868V9.77931C46.2708 9.88669 44.3995 10.3543 43.4037 11.3617ZM56.2265 24.9304C53.8188 24.9304 51.8789 23.6701 51.8789 20.7131C51.8789 18.6617 53.2809 17.0327 55.1844 17.0327C56.4604 17.0327 57.3778 17.434 58.3933 18.3198L60.5824 15.9604C59.207 14.549 57.6019 13.7281 55.2362 13.7281C51.0637 13.7281 48.1098 16.9253 48.1098 20.7131C48.1098 25.3415 51.3285 27.8549 55.0611 27.8549C56.7853 27.8549 58.361 27.513 59.5138 26.8603C59.8975 26.6201 59.9438 26.2697 59.9438 25.8784V24.0078C58.7238 24.6012 57.4254 24.9304 56.2265 24.9304ZM70.3112 19.7609C70.16 17.9058 69.1599 16.6654 67.3853 16.6654C65.846 16.6654 64.5855 17.9313 64.437 19.7609H70.3112ZM73.9011 21.0635C73.9011 21.3701 73.9011 21.5749 73.8423 22.0044H64.5084C64.9146 24.077 66.7284 24.9629 68.7481 24.9629C69.9359 24.9629 71.2455 24.6379 72.4528 24.0488V25.8543C72.4528 26.2414 72.408 26.589 72.0298 26.8264C70.8939 27.4734 69.307 27.8125 67.587 27.8125C63.9019 27.8125 60.8276 25.2906 60.7729 20.8388C60.7729 16.8194 63.2731 13.8058 67.3349 13.8058C71.7525 13.8058 73.8689 16.9988 73.9011 21.0635ZM75.4068 27.8182H78.7963V9.44165C78.4237 9.53631 76.7752 9.94885 75.8984 10.8361C75.5468 11.2091 75.4068 11.7064 75.4068 12.1359V27.8182ZM80.739 27.8182H84.1285V9.44165C83.7559 9.53631 82.1074 9.94885 81.2306 10.8361C80.879 11.2091 80.739 11.7064 80.739 12.1359V27.8182Z" fill="white"/>
<path d="M11.9277 35.0066V21.0042L23.8555 28.0047L11.9277 35.0066Z" fill="url(#paint0_linear)"/>
<path d="M11.9277 21.0041V7.00171L23.8555 14.0022L11.9277 21.0041Z" fill="url(#paint1_linear)"/>
<path d="M0 14.0024V0L11.9278 7.00192L0 14.0024Z" fill="#E7A432"/>
<path d="M11.9278 21.0042V35.0066L0 28.0047L11.9278 21.0042Z" fill="#D94281"/>
<path d="M11.9278 7.00171V21.0041L0 14.0022L11.9278 7.00171Z" fill="#E08126"/>
<path d="M23.8555 14.0024V28.0049L11.9277 21.0044L23.8555 14.0024Z" fill="url(#paint2_linear)"/>
<defs>
<linearGradient id="paint0_linear" x1="11.9277" y1="28.0052" x2="23.8554" y2="28.0052" gradientUnits="userSpaceOnUse">
<stop stop-color="#9A1F3B"/>
<stop offset="0.3758" stop-color="#B41F4A"/>
<stop offset="0.7429" stop-color="#C71E55"/>
<stop offset="1" stop-color="#CF1D5A"/>
</linearGradient>
<linearGradient id="paint1_linear" x1="11.9277" y1="14.0025" x2="23.8554" y2="14.0025" gradientUnits="userSpaceOnUse">
<stop stop-color="#DB5E26"/>
<stop offset="0.1" stop-color="#DB5E26"/>
<stop offset="0.6367" stop-color="#DE7626"/>
<stop offset="1" stop-color="#E08126"/>
</linearGradient>
<linearGradient id="paint2_linear" x1="11.9277" y1="21.004" x2="23.8554" y2="21.004" gradientUnits="userSpaceOnUse">
<stop stop-color="#2A2764"/>
<stop offset="0.1361" stop-color="#4F286D"/>
<stop offset="0.2143" stop-color="#5F2871"/>
<stop offset="0.4639" stop-color="#6F2D74"/>
<stop offset="0.9844" stop-color="#993F7E"/>
<stop offset="1" stop-color="#9B3F7F"/>
</linearGradient>
</defs>
</svg>
