<svg width="30" height="30" viewBox="0 0 30 30" fill="none" xmlns="http://www.w3.org/2000/svg">
<circle cx="15" cy="15" r="15" fill="white"/>
<circle cx="15" cy="15" r="14.5" stroke="black" stroke-opacity="0.08"/>
<path d="M22.5 8.86379C21.8471 9.32434 21.1242 9.67659 20.3591 9.90697C19.9485 9.43482 19.4027 9.10017 18.7957 8.94828C18.1887 8.7964 17.5497 8.8346 16.9651 9.05774C16.3805 9.28087 15.8785 9.67815 15.527 10.1959C15.1756 10.7136 14.9916 11.3267 15 11.9524V12.6342C13.8018 12.6653 12.6145 12.3996 11.5439 11.8607C10.4732 11.3218 9.55249 10.5265 8.86364 9.54561C8.86364 9.54561 6.13636 15.682 12.2727 18.4092C10.8685 19.3624 9.19579 19.8403 7.5 19.7729C13.6364 23.182 21.1364 19.7729 21.1364 11.932C21.1357 11.7421 21.1175 11.5526 21.0818 11.3661C21.7777 10.6798 22.2687 9.81337 22.5 8.86379Z" fill="#03A9F4"/>
</svg>
