<svg width="30" height="30" viewBox="0 0 30 30" fill="none" xmlns="http://www.w3.org/2000/svg">
<circle cx="15" cy="15" r="15" fill="white"/>
<circle cx="15" cy="15" r="14.5" stroke="black" stroke-opacity="0.08"/>
<path d="M7.35806 19.1486C7.6845 20.3759 8.68314 20.6005 8.74976 20.6436C10.3933 21.1181 19.6056 21.1195 21.2738 20.6436C22.4163 20.2933 22.6262 19.2192 22.6655 19.1486C23.1005 16.6953 23.1292 13.4971 22.6455 10.7133L22.6655 10.8517C22.339 9.62438 21.3404 9.39981 21.2738 9.35674C19.6522 8.88996 10.4159 8.8723 8.74976 9.35674C7.60722 9.70771 7.39736 10.7811 7.35806 10.8517C6.89238 13.43 6.86906 16.3881 7.35806 19.1486ZM13.4112 17.5788V12.4286L17.5857 15.0076L13.4112 17.5788Z" fill="#E53935"/>
</svg>
